<svg xmlns="http://www.w3.org/2000/svg" viewBox="0 0 104.78 28.66"><defs><style>.cls-1{fill:#2882db;}.cls-2{fill:#6526dd;}</style></defs><title>Remme Logo_fullcolor</title><g id="Слой_2" data-name="Слой 2"><g id="Layer_1" data-name="Layer 1"><path class="cls-1" d="M26.4,20.46V8.16h3.49v2.48a3.86,3.86,0,0,1,3.92-2.71v3.65h-.18a3.52,3.52,0,0,0-2.76,1.09,4.74,4.74,0,0,0-1,3.25v4.54Z"/><path class="cls-1" d="M41.48,20.74A6.31,6.31,0,0,1,36.86,19a6.19,6.19,0,0,1-1.81-4.62,6.44,6.44,0,0,1,1.72-4.54,5.68,5.68,0,0,1,4.36-1.86,5.36,5.36,0,0,1,4.45,1.93,7.38,7.38,0,0,1,1.54,4.75q0,.28,0,.92H38.52a3,3,0,0,0,1,1.79,3.08,3.08,0,0,0,2,.62,4.29,4.29,0,0,0,3-1.26l2,1.77A6.13,6.13,0,0,1,41.48,20.74Zm-3-7.39h5.25a3.32,3.32,0,0,0-.84-1.9,2.32,2.32,0,0,0-1.76-.71,2.38,2.38,0,0,0-1.76.7A3.44,3.44,0,0,0,38.47,13.35Z"/><path class="cls-1" d="M49.71,20.46V8.16H53.2V9.9a4.5,4.5,0,0,1,3.63-2,3.58,3.58,0,0,1,3.46,2,5.15,5.15,0,0,1,4-2,4,4,0,0,1,3.06,1.16,4.73,4.73,0,0,1,1.09,3.36v8H65V13.6q0-2.5-2-2.5a2,2,0,0,0-1.55.64,2.74,2.74,0,0,0-.56,1.86v6.86H57.36V13.6q0-2.5-2-2.5a2,2,0,0,0-1.55.64,2.74,2.74,0,0,0-.56,1.86v6.86Z"/><path class="cls-1" d="M71.51,20.46V8.16H75V9.9a4.5,4.5,0,0,1,3.63-2,3.58,3.58,0,0,1,3.46,2,5.15,5.15,0,0,1,4-2,4,4,0,0,1,3.06,1.16,4.73,4.73,0,0,1,1.09,3.36v8H86.79V13.6q0-2.5-2-2.5a2,2,0,0,0-1.55.64,2.74,2.74,0,0,0-.56,1.86v6.86H79.15V13.6q0-2.5-2-2.5a2,2,0,0,0-1.55.64A2.74,2.74,0,0,0,75,13.6v6.86Z"/><path class="cls-1" d="M99.14,20.74A6.31,6.31,0,0,1,94.53,19a6.19,6.19,0,0,1-1.81-4.62,6.44,6.44,0,0,1,1.72-4.54,5.68,5.68,0,0,1,4.36-1.86,5.36,5.36,0,0,1,4.45,1.93,7.38,7.38,0,0,1,1.54,4.75q0,.28,0,.92H96.18a3,3,0,0,0,1,1.79,3.07,3.07,0,0,0,2,.62,4.28,4.28,0,0,0,3-1.26l2,1.77A6.13,6.13,0,0,1,99.14,20.74Zm-3-7.39h5.25a3.33,3.33,0,0,0-.84-1.9,2.32,2.32,0,0,0-1.76-.71,2.38,2.38,0,0,0-1.76.7A3.44,3.44,0,0,0,96.13,13.35Z"/><rect class="cls-1" x="3.33" y="24.73" width="3.37" height="3.66" transform="translate(-21.93 24.47) rotate(-74.87)"/><path class="cls-2" d="M19,21.5l-.88-3.25-3.51,1-1.31-4.85a8.12,8.12,0,1,0-10.43,0L.42,23.54l3.25.88.74-2.74,3.51,1,.88-3.25-3.51-1L6.85,12.7a4.75,4.75,0,1,1,2.55,0l3.4,12.58,3.25-.88-.53-1.94Z"/></g></g></svg>
